# xmcd CD database file
#
# Track frame offsets:
#	150
#	21028
#	41185
#	57368
#	77910
#	107390
#	126640
#	164243
#	223575
#
# Disc length: 3164 seconds
#
# Revision: 0
# Processed by: cddbd v1.4PL0 Copyright (c) Steve Scherf et al.
# Submitted via: CDex 1.40Beta9
#
DISCID=830c5a09
DTITLE=GARRY MOORE - STILL LIVE
DYEAR=1993
DGENRE=Blues
TTITLE0=OH PRETTY WOMAN
TTITLE1=WALKING BY MYSELF
TTITLE2=THE STUMBLE
TTITLE3=ALL YOUR LOVE
TTITLE4=MIDNIGHT BLUES
TTITLE5=YOU DONT LOVE ME
TTITLE6=STILL GOT THE BLUES
TTITLE7=TEXAS STRUT
TTITLE8=MOVING ON
EXTD=YEAR: 1993 ID3G: 0
EXTT0=
EXTT1=
EXTT2=
EXTT3=
EXTT4=
EXTT5=
EXTT6=
EXTT7=
EXTT8=
PLAYORDER=
